<?xml version="1.0" encoding="UTF-8" standalone="no"?>
<svg
   xmlns:dc="http://purl.org/dc/elements/1.1/"
   xmlns:cc="http://creativecommons.org/ns#"
   xmlns:rdf="http://www.w3.org/1999/02/22-rdf-syntax-ns#"
   xmlns:svg="http://www.w3.org/2000/svg"
   xmlns="http://www.w3.org/2000/svg"
   xmlns:sodipodi="http://sodipodi.sourceforge.net/DTD/sodipodi-0.dtd"
   xmlns:inkscape="http://www.inkscape.org/namespaces/inkscape"
   width="210mm"
   height="117mm"
   viewBox="0 0 210 117"
   version="1.1"
   id="svg8"
   sodipodi:docname="logo_zoomed_out.svg"
   inkscape:version="1.0.2-2 (e86c870879, 2021-01-15)">
  <defs
     id="defs2">
    <filter
       inkscape:collect="always"
       style="color-interpolation-filters:sRGB"
       id="filter1010"
       x="-1.5667162e-06"
       width="1.0000031"
       y="-9.7239467e-07"
       height="1.0000019">
      <feGaussianBlur
         inkscape:collect="always"
         stdDeviation="9.2124941e-05"
         id="feGaussianBlur1012" />
    </filter>
    <clipPath
       clipPathUnits="userSpaceOnUse"
       id="clipPath1050">
      <rect
         style="opacity:0.995;fill:none;fill-opacity:1;stroke:#fd6d24;stroke-width:0.564999;stroke-linejoin:round;stroke-miterlimit:4;stroke-dasharray:none;stroke-opacity:0.996078"
         id="rect1052"
         width="204.15752"
         height="126.26684"
         x="6.7890868"
         y="81.402802" />
    </clipPath>
    <clipPath
       clipPathUnits="userSpaceOnUse"
       id="clipPath1054">
      <rect
         style="opacity:0.995;fill:none;fill-opacity:1;stroke:#fd6d24;stroke-width:0.564999;stroke-linejoin:round;stroke-miterlimit:4;stroke-dasharray:none;stroke-opacity:0.996078"
         id="rect1056"
         width="199.38251"
         height="129.2908"
         x="6.6302977"
         y="83.352318" />
    </clipPath>
    <clipPath
       clipPathUnits="userSpaceOnUse"
       id="clipPath1058">
      <rect
         style="opacity:0.995;fill:none;fill-opacity:1;stroke:#fd6d24;stroke-width:0.564999;stroke-linejoin:round;stroke-miterlimit:4;stroke-dasharray:none;stroke-opacity:0.996078"
         id="rect1060"
         width="199.38251"
         height="129.2908"
         x="6.6302977"
         y="83.352318" />
    </clipPath>
    <clipPath
       clipPathUnits="userSpaceOnUse"
       id="clipPath1062">
      <rect
         style="opacity:0.995;fill:none;fill-opacity:1;stroke:#fd6d24;stroke-width:0.564999;stroke-linejoin:round;stroke-miterlimit:4;stroke-dasharray:none;stroke-opacity:0.996078"
         id="rect1064"
         width="199.38251"
         height="129.2908"
         x="6.6302977"
         y="83.352318" />
    </clipPath>
    <clipPath
       clipPathUnits="userSpaceOnUse"
       id="clipPath1066">
      <rect
         style="opacity:0.995;fill:none;fill-opacity:1;stroke:#fd6d24;stroke-width:0.564999;stroke-linejoin:round;stroke-miterlimit:4;stroke-dasharray:none;stroke-opacity:0.996078"
         id="rect1068"
         width="199.38251"
         height="129.2908"
         x="6.6302977"
         y="83.352318" />
    </clipPath>
    <clipPath
       clipPathUnits="userSpaceOnUse"
       id="clipPath1070">
      <rect
         style="opacity:0.995;fill:none;fill-opacity:1;stroke:#fd6d24;stroke-width:1.57124;stroke-linejoin:round;stroke-miterlimit:4;stroke-dasharray:none;stroke-opacity:0.996078"
         id="rect1072"
         width="554.47437"
         height="359.55228"
         x="29.466906"
         y="426.20743" />
    </clipPath>
    <clipPath
       clipPathUnits="userSpaceOnUse"
       id="clipPath1074">
      <rect
         style="opacity:0.995;fill:none;fill-opacity:1;stroke:#fd6d24;stroke-width:0.564999;stroke-linejoin:round;stroke-miterlimit:4;stroke-dasharray:none;stroke-opacity:0.996078"
         id="rect1076"
         width="199.38251"
         height="129.2908"
         x="6.6302977"
         y="83.352318" />
    </clipPath>
    <clipPath
       clipPathUnits="userSpaceOnUse"
       id="clipPath1078">
      <rect
         style="opacity:0.995;fill:none;fill-opacity:1;stroke:#fd6d24;stroke-width:0.564999;stroke-linejoin:round;stroke-miterlimit:4;stroke-dasharray:none;stroke-opacity:0.996078"
         id="rect1080"
         width="199.38251"
         height="129.2908"
         x="6.6302977"
         y="83.352318" />
    </clipPath>
  </defs>
  <sodipodi:namedview
     id="base"
     pagecolor="#ffffff"
     bordercolor="#666666"
     borderopacity="1.0"
     inkscape:pageopacity="0.0"
     inkscape:pageshadow="2"
     inkscape:zoom="1.1173455"
     inkscape:cx="333.13312"
     inkscape:cy="196.95558"
     inkscape:document-units="mm"
     inkscape:current-layer="layer1"
     inkscape:document-rotation="0"
     showgrid="false"
     inkscape:window-width="1920"
     inkscape:window-height="1001"
     inkscape:window-x="-9"
     inkscape:window-y="-9"
     inkscape:window-maximized="1" />
  <metadata
     id="metadata5">
    <rdf:RDF>
      <cc:Work
         rdf:about="">
        <dc:format>image/svg+xml</dc:format>
        <dc:type
           rdf:resource="http://purl.org/dc/dcmitype/StillImage" />
        <dc:title></dc:title>
      </cc:Work>
    </rdf:RDF>
  </metadata>
  <g
     inkscape:label="Layer 1"
     inkscape:groupmode="layer"
     id="layer1">
    <path
       style="opacity:0.995;fill:#fd6d24;fill-opacity:1;stroke:#fd6d24;stroke-width:0.54363;stroke-linejoin:round;stroke-miterlimit:4;stroke-dasharray:none;stroke-opacity:0.996078"
       d="m 32.265195,193.94141 c -2.744103,-0.17897 -4.653721,-0.52295 -6.69528,-1.20603 -7.918643,-2.64947 -12.648931,-9.39364 -13.699159,-19.53146 -0.193918,-1.87188 -0.104005,-7.76181 0.139016,-9.10654 l 0.118051,-0.65322 3.700973,0.73367 3.700973,0.73368 0.03369,2.00066 c 0.155885,9.25818 4.408534,14.42227 13.066222,15.86662 1.944028,0.32432 3.456892,0.26433 5.902398,-0.23403 9.652429,-1.96704 15.688259,-8.35009 17.20661,-18.19644 1.025225,-6.6485 -0.974729,-11.82029 -6.359766,-16.44605 -2.296715,-1.97289 -5.218665,-3.87366 -11.516362,-7.49156 -8.724007,-5.01176 -10.538516,-6.22458 -11.708986,-7.82626 -3.763797,-5.15041 -4.888017,-12.44914 -2.899243,-18.82264 1.522917,-4.88055 5.575814,-9.33606 10.693118,-11.75537 3.29452,-1.55755 5.670104,-2.094682 9.236368,-2.088382 5.591587,0.0099 10.020187,1.616252 13.723899,4.978052 2.426948,2.20289 4.828297,6.01264 6.201187,9.83821 l 0.414034,1.1537 -0.434394,0.16097 c -0.238914,0.0885 -1.701572,0.63041 -3.250347,1.20416 -1.54878,0.57376 -3.165913,1.19503 -3.593632,1.38061 -0.427716,0.18558 -0.826877,0.33741 -0.887022,0.33741 -0.06015,0 -0.243315,-0.46775 -0.407043,-1.03945 -0.863645,-3.01567 -3.026515,-5.7214 -5.620017,-7.03059 -2.780991,-1.40384 -6.81738,-1.47664 -10.053042,-0.18132 -2.206585,0.88336 -4.464433,2.70794 -5.681877,4.59156 -3.19796,4.94787 -0.638035,11.38597 5.255143,13.21646 6.187471,1.9219 8.441054,2.8596 11.643512,4.84478 2.871147,1.7798 6.283784,4.84566 8.239383,7.40212 4.054794,5.30065 6.548805,12.15512 6.879396,18.90714 0.51301,10.47783 -2.410108,19.3069 -8.485116,25.62868 -6.027002,6.27182 -14.72687,9.2919 -24.862683,8.63086 z"
       id="path1016"
       clip-path="url(#clipPath1078)"
       transform="matrix(0.57109603,0,0,0.57109603,41.1338,-26.549783)" />
    <path
       style="opacity:0.995;fill:#fd6d24;fill-opacity:1;stroke:#fd6d24;stroke-width:0.773834;stroke-linejoin:round;stroke-miterlimit:4;stroke-dasharray:none;stroke-opacity:0.996078"
       d="m 16.242884,163.75109 c -1.725779,-0.34012 -3.184824,-0.63514 -3.242321,-0.65561 -0.0575,-0.0205 5.717228,-1.72652 12.832722,-3.79122 l 12.937262,-3.75401 2.898925,0.54464 c 1.594407,0.29955 2.942813,0.55934 2.99646,0.57732 0.152218,0.051 -24.772331,7.72423 -25.043898,7.70996 -0.132752,-0.007 -1.65337,-0.29096 -3.37915,-0.63108 z"
       id="path1018"
       clip-path="url(#clipPath1074)"
       transform="matrix(0.57109603,0,0,0.57109603,41.1338,-26.549783)" />
    <path
       style="opacity:0.995;fill:#3acf77;fill-opacity:1;stroke:#3acf77;stroke-width:0.6;stroke-linejoin:round;stroke-miterlimit:4;stroke-dasharray:none;stroke-opacity:0.996078;filter:url(#filter1010)"
       d="m 150.76065,725.8959 c 12.48605,-6.56173 21.21371,-14.34765 28.92374,-25.80279 20.70993,-30.76967 20.73005,-77.50752 0.047,-109.23057 -12.33934,-18.92574 -31.92293,-32.6896 -55.44231,-38.96628 -6.25448,-1.66916 -8.31364,-2.5201 -11.68,-4.82673 -10.79843,-7.39907 -13.703301,-20.74619 -6.80343,-31.25996 4.03712,-6.15162 12.34447,-11.79803 20.34306,-13.82696 4.94407,-1.25411 12.45259,-1.06859 17.00459,0.42016 9.56969,3.12981 16.87038,11.23521 19.82519,22.01039 0.7727,2.81777 0.96213,3.11718 1.88578,2.98061 0.56473,-0.0835 5.2745,-0.61784 10.46615,-1.1874 l 9.43937,-1.03558 2.10109,1.13332 c 10.59479,5.71479 26.40846,31.35619 42.258,68.5201 7.54947,17.70197 10.98975,28.31786 12.42118,38.32882 2.20072,15.39114 2.19858,37.00804 -0.005,48.32883 -1.05687,5.43019 -5.17565,17.35991 -9.26166,26.82566 l -3.65988,8.47861 -39.60279,5.69886 c -21.78154,3.13438 -40.50896,5.81903 -41.61649,5.96589 -1.84916,0.2452 -1.57491,0.0364 3.35617,-2.55498 z"
       id="path185"
       transform="matrix(0.20535946,0,0,0.20535946,38.869029,-66.473332)"
       clip-path="url(#clipPath1070)" />
    <path
       style="opacity:0.995;fill:#3acf77;fill-opacity:0.99607843;stroke:#3acf77;stroke-width:0.607506;stroke-linejoin:round;stroke-miterlimit:4;stroke-dasharray:none;stroke-opacity:0.99607843"
       d="m 56.247477,119.15368 c 0.02499,-0.0265 0.865076,-0.38367 1.360333,-0.57842 0.584087,-0.22969 1.100416,-0.41836 2.165103,-0.79115 1.954215,-0.68425 2.719858,-0.97712 3.684701,-1.40946 0.386389,-0.17314 0.409237,-0.17954 0.768027,-0.21519 0.203383,-0.0202 3.621108,-0.3515 7.59494,-0.7362 3.973832,-0.38469 9.52721,-1.03708 12.349532,-1.31068 2.822319,-0.2736 5.141962,-0.38023 5.146065,-0.37602 0.0041,0.004 -1.095432,0.54018 -2.443403,1.19105 l -2.457966,1.06961 -2.666761,0.40301 c -1.4626,0.22103 -4.446737,0.48121 -6.613569,0.71586 -2.166836,0.23464 -5.654962,0.61237 -7.75139,0.83939 -2.096432,0.22701 -4.400516,0.47662 -5.120185,0.55468 -0.719673,0.0781 -2.31973,0.25056 -3.555685,0.38334 -1.235955,0.13278 -2.298395,0.24921 -2.360974,0.25874 -0.06258,0.01 -0.107024,0.0102 -0.09877,10e-4 z"
       id="path1022"
       sodipodi:nodetypes="ssssssssscsssssss"
       clip-path="url(#clipPath1066)"
       transform="matrix(0.57109603,0,0,0.57109603,41.1338,-26.549783)" />
    <path
       style="opacity:0.995;fill:#fd6d24;fill-opacity:1;stroke:#fd6d24;stroke-width:0.801854;stroke-linejoin:round;stroke-miterlimit:4;stroke-dasharray:none;stroke-opacity:0.996078"
       d="m 63.965277,115.70932 c -0.01316,-0.0374 -0.130634,-0.37523 -0.261057,-0.75071 -0.903822,-2.602 -2.205078,-5.18058 -3.624916,-7.18312 -1.023586,-1.44367 -2.534907,-3.06742 -3.79288,-4.07504 -1.957383,-1.56783 -4.345956,-2.79163 -6.77002,-3.46866 -1.369276,-0.382431 -2.949497,-0.662521 -4.253613,-0.753943 -0.305635,-0.02143 -0.547031,-0.04762 -0.536437,-0.05822 0.05111,-0.05111 3.692716,-0.538001 5.870977,-0.784966 6.116571,-0.693481 11.161128,-0.985449 15.986353,-0.92525 3.300388,0.04118 5.338542,0.180949 7.708722,0.528656 6.602929,0.968648 10.238863,2.750023 12.751256,6.247293 1.523612,2.12089 2.611873,4.70975 3.033253,7.21581 0.0849,0.50489 0.195613,1.52226 0.165666,1.52226 -0.0068,0 -5.035901,0.48668 -11.175724,1.0815 -6.139826,0.59482 -11.959504,1.15748 -12.932618,1.25034 -0.973118,0.0929 -1.853843,0.18082 -1.957171,0.19546 -0.116007,0.0164 -0.197019,7.2e-4 -0.211791,-0.0414 z"
       id="path1020"
       clip-path="url(#clipPath1062)"
       transform="matrix(0.57109603,0,0,0.57109603,41.1338,-26.549783)" />
    <path
       style="opacity:0.995;fill:#3acf77;fill-opacity:1;stroke:#3acf77;stroke-width:0.539382;stroke-linejoin:round;stroke-miterlimit:4;stroke-dasharray:none;stroke-opacity:0.996078"
       d="m 32.515465,182.25013 c -5.188461,-0.96107 -8.829456,-3.41362 -10.74311,-7.23648 -1.031892,-2.06139 -1.727561,-5.47454 -1.727561,-8.47591 v -1.6763 l 12.58498,-3.8877 c 6.921741,-2.13823 12.608008,-3.86466 12.636153,-3.83652 0.02816,0.0282 -0.06731,0.94821 -0.212114,2.04459 -0.424099,3.21107 -0.06479,5.95032 0.956084,7.28875 1.094217,1.4346 3.131766,2.20324 5.829718,2.19921 0.981618,-0.001 1.90485,-0.0488 2.051627,-0.10508 0.387489,-0.14869 0.338632,0.0822 -0.360559,1.704 -1.33422,3.09475 -3.606423,5.99748 -6.204822,7.92664 -4.096761,3.04161 -10.627514,4.8296 -14.810396,4.0548 z"
       id="path1014"
       clip-path="url(#clipPath1058)"
       transform="matrix(0.57109603,0,0,0.57109603,41.1338,-26.549783)" />
    <path
       id="path152"
       style="fill:none;stroke:#000000;stroke-width:0.767877;stroke-linecap:butt;stroke-linejoin:miter;stroke-miterlimit:4;stroke-dasharray:none;stroke-opacity:1"
       d="m 42.16853,99.589798 c 0,0 19.848669,-3.462907 32.422724,-1.523971 4.489615,0.692299 9.293458,1.868129 12.370573,5.937153 3.53969,4.68073 3.503672,9.40653 3.503672,9.40653 m -35.345087,6.0691 7.34365,-0.79536 m 0,0 7.34365,-0.79537 14.6873,-1.59073 m -39.154818,76.53861 33.064139,-4.74532 c 0,0 4.403873,-9.16319 4.994965,-14.25132 0.798897,-6.8769 0.309168,-15.70762 -1.204633,-20.75079 -1.941221,-6.4671 -12.751842,-32.37643 -19.730603,-34.40508 m 22.03095,-2.3861 5.970487,-2.88764 -26.62611,2.57943 M 45.75702,156.63282 c 0,0 -1.815078,7.25453 0.678924,9.89672 2.890982,3.06274 8.182572,1.61261 8.182572,1.61261 m -42.753084,-5.0183 26.837113,-7.79952 7.054475,1.30849 -25.960119,8.02531 M 42.168532,99.589798 c -8.231476,0.424262 -16.315706,5.760962 -19.067616,13.676052 -2.333318,6.91049 -1.01288,15.08626 3.755119,20.66983 14.071964,10.36056 33.849152,13.96383 27.762481,34.20647 -2.979751,9.60465 -10.702479,13.85531 -19.62422,14.67687 -12.18545,-0.99754 -15.623983,-8.3955 -15.197395,-18.16089 -2.643998,-0.51053 -5.287339,-1.02445 -7.931469,-1.53428 -1.8939134,14.09742 2.141154,27.97275 16.715475,30.69544 6.303483,0.91479 11.918115,0.5009 16.759287,-0.98353 4.841171,-1.48442 8.908881,-4.03935 12.118519,-7.40666 6.419276,-6.73459 9.406263,-16.71864 8.284074,-27.88681 -2.096836,-15.90204 -12.463455,-25.84686 -26.817982,-29.19958 -6.44472,-2.21535 -8.388057,-9.12124 -4.446078,-13.80605 3.662457,-4.46477 10.778573,-6.07787 15.728371,-2.83494 2.792496,2.00983 4.207445,4.60425 4.913313,7.77689 3.048739,-1.5827 5.609409,-2.03239 8.71898,-3.48967 C 60.263639,105.01619 53.151484,99.317616 42.168532,99.589798 Z"
       clip-path="url(#clipPath1054)"
       transform="matrix(0.57109603,0,0,0.57109603,41.1338,-26.549783)" />
    <text
       xml:space="preserve"
       style="font-style:normal;font-variant:normal;font-weight:normal;font-stretch:normal;font-size:27.869px;line-height:1.25;font-family:'Britannic Bold';-inkscape-font-specification:'Britannic Bold, ';fill:#d45500;fill-opacity:1;stroke:none;stroke-width:0.38707"
       x="87.244911"
       y="155.49608"
       id="text158"
       transform="matrix(0.55773874,0,0,0.58477321,41.1338,-26.549783)"
       clip-path="url(#clipPath1050)"><tspan
         sodipodi:role="line"
         id="tspan156"
         x="87.244911"
         y="155.49608"
         style="font-style:normal;font-variant:normal;font-weight:normal;font-stretch:normal;font-size:27.869px;font-family:'Britannic Bold';-inkscape-font-specification:'Britannic Bold, ';fill:#d45500;stroke-width:0.38707">oundwave</tspan></text>
  </g>
</svg>
